<?xml version="1.0" encoding="UTF-8"?>
<svg id="Capa_2" data-name="Capa 2" xmlns="http://www.w3.org/2000/svg" viewBox="0 0 900 900">
  <defs>
    <style>
      .cls-1 {
        fill: #100b29;
      }
    </style>
  </defs>
  <g id="Capa_1-2" data-name="Capa 1">
    <g>
      <path class="cls-1" d="M120.42,303.05c7.89,7.79-12.09,48.61-13.75,62.47-13.61,113.58,114.03,84.45,183.16,64.01,143.46-42.41,339.87-154.74,488.98-108.82,106.8,32.89,153.95,152.59,96.5,248.68-13.03,21.79-58.37,67.25-84.18,69.15-30.49,2.25-.58-45.94,1.6-63.02,13.94-109.3-105.57-86.77-174.99-67.63-152.21,41.98-398.08,188.43-546.63,88.07-92.73-62.65-93.67-198.46-9.18-268.81,9.68-8.06,47.43-35.03,58.5-24.1Z"/>
      <path class="cls-1" d="M762.92,266.78c-18.63,11.18-29.97-20.13-41.07-33.1-72.27-84.48-181.12-134.24-294.52-127.41-17.59,1.06-72.06,10.42-85.07,20.42-9.75,7.49-.05,14.84.7,22.26,2.02,19.95-1.56,39.41-17.4,52.62-31.2,25.99-90.02,44.97-124.42,70.13-33.02,8.33-78.72-9.4-81.92-46.42,15.35-39.33,27.29-83.65,44.94-121.72,11.75-25.36,15.97-33.64,45.62-39.73,8.54-1.75,17.72.05,24.71-1.91,8.21-2.3,38.95-25.71,53.34-32.1,139.14-61.8,331.36-27.2,420.53,100.22,26.67,38.1,51.78,90.56,54.57,136.73ZM221.76,208.75c24.49,4.64,55.8-14.47,52.03-41.13-25.09-11.83-54.4,15.35-52.03,41.13Z"/>
      <path class="cls-1" d="M185.41,677.52c3.98,3.18,10.76,14.28,17.05,19.66,110.48,94.67,267.49,121.85,401.18,57.03,17.56-8.51,74.55-50.27,84.54-51.21,41.65-3.93,119.25,63.65,110.28,109.21-12.34,13.82-28.76-1.41-41.09-5.37-62.38-20.01-115.99,34.86-167.5,59.51-129.74,62.09-316.53,41.3-395.24-88.34-12.02-19.8-34.08-69.59-34.12-91.73-.02-14,15.27-16.44,24.89-8.77Z"/>
    </g>
  </g>
</svg>